<svg xmlns="http://www.w3.org/2000/svg" fill="none" viewBox="0 0 120 120"><path fill="#E60000" d="M60.144 12.813a37.5 37.5 0 0 0-37.338 37.5c0 25 37.5 57.499 37.5 57.499s37.331-32.356 37.5-57.337a37.67 37.67 0 0 0-37.662-37.663Zm0 55.075a17.5 17.5 0 1 1-.025-35 17.5 17.5 0 0 1 .037 35z"/><path fill="#BD0000" d="M47.225 19.619a.562.562 0 1 1-.575-.556.55.55 0 0 1 .575.556m3.931 14.131a.623.623 0 0 0 .625-.663.625.625 0 0 0-.625-.625.647.647 0 0 0 0 1.294zm4.47-17.9a.707.707 0 0 0 0-1.412.687.687 0 0 0-.726.7.693.693 0 0 0 .725.712Zm-8.95 7.7a.563.563 0 1 0 .55.575.55.55 0 0 0-.55-.575m0 8.969a.562.562 0 1 0 .568.556.543.543 0 0 0-.588-.575zm0-4.488a.55.55 0 0 0-.57.556.563.563 0 1 0 .57-.556m4.468-12.243a.625.625 0 1 0-.006 0zm4.481 12.1a.706.706 0 1 0 .694.706.694.694 0 0 0-.694-.707Zm0-4.482a.706.706 0 1 0 .694.707.686.686 0 0 0-.694-.707m-4.506 5.838a.625.625 0 1 0-.237-.046.6.6 0 0 0 .256.046zm4.506-8.913a.707.707 0 1 0-.694-.731.693.693 0 0 0 .694.731M51.8 24.137a.625.625 0 1 0-.681.625.625.625 0 0 0 .675-.625zm-.675-5.156a.625.625 0 1 0 .25.03.6.6 0 0 0-.256-.03zM46.694 37a.569.569 0 1 0 .531.594.554.554 0 0 0-.531-.594M37.4 64.5c0 .094.156.225.3.419.144-.2.3-.325.288-.431-.013-.107-.182-.213-.282-.32-.106.1-.28.207-.306.326zm0-22.462c.106.112.2.28.325.312s.231-.15.431-.294c-.2-.143-.318-.3-.43-.293-.113.006-.226.168-.345.268l.02.007Zm0 4.487c.106.106.2.281.325.306s.231-.144.431-.287c-.2-.144-.318-.306-.43-.294-.113.013-.226.169-.345.269l.02.006Zm0 22.419c.106.112.2.287.325.312s.231-.144.431-.287c-.2-.15-.318-.306-.43-.3-.113.006-.226.175-.345.269l.02.006Zm4.806 12.931a.476.476 0 0 0-.5.456.46.46 0 0 0 .432.488.48.48 0 0 0 .518-.438.487.487 0 0 0-.45-.506m-.037-4.487a.47.47 0 0 0-.463.462.475.475 0 0 0 .47.488.477.477 0 0 0 .438-.657.48.48 0 0 0-.439-.293zm0-16.907a.47.47 0 0 0 .462-.487.463.463 0 0 0-.462-.463.475.475 0 0 0 0 .95M37.68 73.125c-.093 0-.225.15-.425.287.2.15.32.307.425.3.107-.006.22-.175.325-.275-.106-.087-.2-.262-.325-.312m.044 4.375c-.112.106-.287.188-.325.313-.037.124.138.237.275.437.156-.188.319-.3.313-.412-.007-.113-.17-.194-.263-.307zm-.056-48.625c.112-.1.287-.194.319-.319.03-.125-.144-.231-.282-.431-.15.194-.312.313-.306.425.006.113.175.25.269.356zm.037 27.038c.138-.2.307-.344.282-.438s-.207-.212-.32-.313c-.093.107-.262.213-.268.332-.006.118.156.256.306.45zm-.306-18.35c.038.124.213.212.325.312.094-.112.263-.219.263-.331s-.157-.225-.313-.419c-.131.206-.294.375-.275.438m22.763-9.738a.775.775 0 1 0 .725.806.76.76 0 0 0-.725-.806m-22.457 4.944c-.106.106-.28.206-.306.331s.156.225.3.419c.144-.2.3-.325.288-.431-.013-.107-.182-.213-.282-.32Zm0 27.5c.12 0 .22-.175.325-.275-.106-.106-.2-.282-.325-.313s-.225.15-.425.294c.175.156.294.313.4.306zm.307-9.256c0-.113-.182-.213-.282-.32-.106.107-.28.207-.306.332s.156.225.3.425c.119-.2.275-.319.263-.425zm25.812 53.6.625-.625a.79.79 0 0 0-.65.637zm18.75-23.27a1.043 1.043 0 1 0 .794 1.694l.056-.075a1.044 1.044 0 0 0-.85-1.618ZM60.131 23.338a.775.775 0 1 0 0 1.551.775.775 0 0 0 0-1.55Zm12.5 72.4c.25-.274.507-.543.763-.818a.97.97 0 0 0-.775.819h.012ZM94.938 60a1.05 1.05 0 0 0 .912 1.019q.345-1.001.625-1.994a1.1 1.1 0 0 0-.537-.125 1.07 1.07 0 0 0-1 1.1m-3.444 7.875a1.07 1.07 0 0 0-.969 1.476 1.057 1.057 0 0 0 1.388.568c.212-.4.425-.8.625-1.2a1.075 1.075 0 0 0-1.044-.85zm-5.531 10a1.07 1.07 0 0 0 .487.906c.406-.581.8-1.169 1.194-1.756a1.1 1.1 0 0 0-.625-.2 1.056 1.056 0 0 0-1.056 1.031zm-43.75-4.888a.481.481 0 0 0-.368.8.48.48 0 0 0 .83-.3.49.49 0 0 0-.481-.518l.019.019ZM95.9 38.613c-.2-.626-.419-1.2-.625-1.794a1.068 1.068 0 0 0 .625 1.793Zm-.944 3.5a1.057 1.057 0 0 0 2.013.387c-.094-.425-.188-.856-.294-1.25a1.057 1.057 0 0 0-1.719.894zM73.57 16.1a.98.98 0 0 0 .806-.475 45 45 0 0 0-1.762-.675 1 1 0 0 0 0 .2.97.97 0 0 0 .956.95m-.05 4.481a.956.956 0 1 0-.913-.975.97.97 0 0 0 .913.975m9.019.088a1 1 0 0 0 .468-.119 33 33 0 0 0-1.5-1.088 1 1 0 0 0 0 .163 1.025 1.025 0 0 0 1.032 1.044m8.968 8.95c-.318-.482-.625-.956-.993-1.425q-.06.15-.07.312a1.06 1.06 0 0 0 1.063 1.113m-4.462-4.488a1.06 1.06 0 0 0 .694-.281 34 34 0 0 0-1.488-1.506 1.08 1.08 0 0 0-.197 1.164 1.05 1.05 0 0 0 .99.623ZM68.188 100.3v.038l.875-.888a.906.906 0 0 0-.875.85m-3.6-79.831a.844.844 0 1 0-.838-.838.825.825 0 0 0 .838.838m0-4.488a.844.844 0 1 0-.813-.887.83.83 0 0 0 .794.887zm0 8.969a.817.817 0 0 0 .843-.819.844.844 0 1 0-.843.819m-4.45-10.575a.775.775 0 1 0 .75.781.76.76 0 0 0-.75-.781M64.6 27.762a.844.844 0 1 0 .838.825.825.825 0 0 0-.838-.83zm8.944-4.637a.98.98 0 0 0-.938.956.963.963 0 1 0 .938-.956m-4.419 9.063a.894.894 0 1 0 .875.937.906.906 0 0 0-.875-.938ZM60.106 18.85a.776.776 0 1 0 .782.787.756.756 0 0 0-.782-.787M73.6 32.125a.956.956 0 1 0 .925.962.97.97 0 0 0-.925-.962m-.056-4.488a.962.962 0 1 0 .981.95.975.975 0 0 0-.981-.95m.05 8.97a.962.962 0 1 0 .931.962.975.975 0 0 0-.931-.963ZM69.063 18.75a.894.894 0 1 0 .912.875.9.9 0 0 0-.912-.875m0 8.969a.893.893 0 1 0 .937.875.9.9 0 0 0-.925-.888zm0-13.457a.895.895 0 1 0 .867.546.91.91 0 0 0-.842-.558zm0 8.97a.893.893 0 1 0 .863.533.91.91 0 0 0-.85-.546zm8.98 4.374a1.013 1.013 0 1 0 1.007 1.025 1.03 1.03 0 0 0-.994-1.05l-.012.025Zm0-4.481a1.012 1.012 0 1 0 .988 1.038 1.024 1.024 0 0 0-.956-1.038zm0-4.488a1.014 1.014 0 1 0 1.02 1.007 1.027 1.027 0 0 0-1.02-1.031zM60.1 32.307a.75.75 0 0 0-.725.624h1.481a.756.756 0 0 0-.756-.625Zm17.944 4.243a1.019 1.019 0 1 0 1.019 1.006 1.03 1.03 0 0 0-1.02-1.006Zm0 13.456a.9.9 0 0 0-.381.088v.3c0 .512 0 1.019-.07 1.519.146.08.31.12.476.118a1.013 1.013 0 0 0-.031-2.025zm4.537 8.944a1.044 1.044 0 1 0 .994 1.05 1.024 1.024 0 0 0-1.006-1.05zm-4.525-26.875a1.014 1.014 0 1 0 .712.287 1.02 1.02 0 0 0-.724-.293zm4.5 35.85a1.044 1.044 0 1 0 1.032 1.025 1.024 1.024 0 0 0-1.044-1.031zm0 4.481a1.044 1.044 0 1 0 1.063 1.031A1.03 1.03 0 0 0 82.5 72.4zm0-8.969a1.044 1.044 0 1 0 1.057 1.038 1.03 1.03 0 0 0-1.113-1.044l.056.007Zm.007 13.438a1.044 1.044 0 1 0-.2 2.078 1.044 1.044 0 0 0 .2-2.078M86.938 34.1a1.06 1.06 0 0 0 1.125-1.05 1.075 1.075 0 0 0-1.044-1.075 1.069 1.069 0 0 0-.8 1.791 1.05 1.05 0 0 0 .744.334zm-1-5.588A1.063 1.063 0 1 0 87.05 27.5a1.056 1.056 0 0 0-1.087 1.012zM73.575 68a.963.963 0 1 0 .95.944.975.975 0 0 0-.95-.944m4.488 13.388a1.013 1.013 0 1 0 1 1.018 1.025 1.025 0 0 0-1-1.019Zm0-4.488a1.013 1.013 0 1 0 1.006 1.019 1.024 1.024 0 0 0-1.013-1.044zm0-4.469a1.012 1.012 0 1 0 1.018 1.007 1.025 1.025 0 0 0-1.037-1.007zm0-4.487a1.012 1.012 0 1 0 1.006 1.019 1.03 1.03 0 0 0-1.013-1.02zm-4.488-4.431a.962.962 0 1 0 .956.974.98.98 0 0 0-.962-.974zm4.475 22.356a1.013 1.013 0 1 0 1.013 1.006 1.025 1.025 0 0 0-1.02-1.006zm0-31.375a1.012 1.012 0 1 0 1.006 1.019 1.025 1.025 0 0 0-1-1.02zM56.288 33.325a.7.7 0 0 0 .05-.231.707.707 0 1 0-1.353.273q.067.146.19.245.552-.158 1.113-.287m12.95 32.025a.92.92 0 0 0 .568-.362c-.187.124-.375.25-.568.362m-3.8-32.225a.844.844 0 1 0-1.682 0 1 1 0 0 0 .038.206c.481.1.962.219 1.425.363a.8.8 0 0 0 .219-.569m12.637 25.881a1.012 1.012 0 1 0 .988.994 1.03 1.03 0 0 0-.988-1.025zm0-13.456a1.03 1.03 0 0 0-.925.625c.094.375.175.763.244 1.15.183.169.42.267.669.275a1.018 1.018 0 0 0 0-2.031zm0 17.944a1.013 1.013 0 1 0 1.025 1 1.025 1.025 0 0 0-1.062-1.032zm0-22.425a1.012 1.012 0 1 0 1.006 1.018 1.03 1.03 0 0 0-1.025-1.05zm13.463 2.037a1.063 1.063 0 1 0 0-2.125 1.063 1.063 0 0 0 0 2.125m0-4.481a1.062 1.062 0 1 0-1.082-1.025 1.063 1.063 0 0 0 1.07.994zm0 13.456a1.063 1.063 0 1 0 0-2.125 1.063 1.063 0 0 0 0 2.125M87.013 36.5a1.05 1.05 0 0 0-1.025 1.081 1.063 1.063 0 1 0 1.025-1.081m-.032 22.431a1.063 1.063 0 1 0 .094 2.125 1.063 1.063 0 0 0-.094-2.125m4.557-24.8a1.04 1.04 0 0 0 1.05-1.044 1.062 1.062 0 1 0-1.05 1.044m-8.994 20.331a1.044 1.044 0 1 0 1.031 1.025 1.03 1.03 0 0 0-1.031-1.025m8.994-6.875a1.06 1.06 0 0 0 1.025-1.075 1.037 1.037 0 0 0-1.05-1.05 1.063 1.063 0 0 0 0 2.125zm0 8.97a1.063 1.063 0 1 0-1.082-1.095 1.064 1.064 0 0 0 1.07 1.075zm4.475-8.97a1.064 1.064 0 0 0 .364-2.052 1.044 1.044 0 0 0-1.427 1.009A1.06 1.06 0 0 0 96 47.569zm.03 6.875a1.063 1.063 0 1 0 1.026 1.088 1.05 1.05 0 0 0-1.038-1.137l.013.05Zm-.037-2.362a1.062 1.062 0 1 0-1.056-1.044 1.044 1.044 0 0 0 1.044.994zM91.57 63.437a1.063 1.063 0 1 0 1.012 1.094 1.057 1.057 0 0 0-1.025-1.144zm-.069-4.493a1.07 1.07 0 0 0-1.044 1.062 1.063 1.063 0 0 0 2.125 0 1.076 1.076 0 0 0-1.093-1.112zm-4.456 6.618a1.062 1.062 0 1 0 0-2.124 1.05 1.05 0 0 0-1.088 1.018 1.066 1.066 0 0 0 1.075 1.056zM82.5 27.556a1.044 1.044 0 1 0 1.063 1.025 1.025 1.025 0 0 0-1.063-1.025m.038 13.45a1.044 1.044 0 1 0 1.025 1.069 1.025 1.025 0 0 0-1.013-1.069zm0-8.968a1.044 1.044 0 1 0 1.018 1.037 1.03 1.03 0 0 0-1-1.038zm0 4.487a1.043 1.043 0 1 0 1.037 1.056 1.025 1.025 0 0 0-1.037-1.056m0 8.969a1.043 1.043 0 1 0 1.037 1.056 1.026 1.026 0 0 0-1.037-1.056m0 4.487a1.043 1.043 0 1 0 .16 2.08 1.043 1.043 0 0 0-.16-2.08m4.506 6.556a1.062 1.062 0 1 0-.075-2.118 1.044 1.044 0 0 0-1.006 1.094 1.056 1.056 0 0 0 1.08 1.025Zm0 11.332a1.06 1.06 0 0 0-1.063 1.112 1.056 1.056 0 0 0 1.094 1.013 1.063 1.063 0 0 0 0-2.125zm-.05-15.825a1.057 1.057 0 0 0 .801-1.808 1.063 1.063 0 0 0-1.814.752 1.043 1.043 0 0 0 .994 1.056zm-4.438-28.975a1.044 1.044 0 1 0 1.038 1.056 1.03 1.03 0 0 0-1.056-1.056zm4.513 49.294a1.044 1.044 0 0 0-1.088 1.012 1.063 1.063 0 1 0 1.088-1.013Zm0-24.794a1.062 1.062 0 1 0-.044-2.125 1.043 1.043 0 0 0-1.056 1.043 1.067 1.067 0 0 0 1.094 1.082zm0-4.494a1.062 1.062 0 1 0-1.075-1.025 1.044 1.044 0 0 0 1.044 1.025h.03ZM46.694 68.394a.562.562 0 1 0 .562.569.55.55 0 0 0-.593-.57h.03Zm4.481 1.212a.647.647 0 1 0 0-1.293.647.647 0 0 0 0 1.293m-.625 3.806a.626.626 0 1 0 .625-.625.625.625 0 0 0-.675.625zm.625 5.082a.647.647 0 1 0 0-1.294.647.647 0 0 0 0 1.294m-4.494-14.581a.562.562 0 1 0 .563.556.54.54 0 0 0-.581-.556zm4.475 19.13a.625.625 0 1 0-.018 0zm0 3.194a.625.625 0 1 0 .675.626.625.625 0 0 0-.712-.613zm.05 4.482a.625.625 0 1 0-.087 1.248.625.625 0 0 0 .087-1.248m4.42-16.569a.706.706 0 1 0-.7-.731.694.694 0 0 0 .7.731m0 4.375a.706.706 0 1 0-.713-.681.687.687 0 0 0 .712.706zm0 4.6a.706.706 0 1 0 .037-1.412.706.706 0 0 0-.038 1.412Zm0-13.444a.707.707 0 1 0-.662-.44.68.68 0 0 0 .661.421zm0 21a.706.706 0 1 0 .693.707.69.69 0 0 0-.694-.726zM42.162 68.487a.457.457 0 0 0-.457.463.48.48 0 0 0 .47.487.494.494 0 0 0 .48-.487.476.476 0 0 0-.493-.463M55.625 95.15a.707.707 0 1 0 .694.7.687.687 0 0 0-.694-.7M42.181 46.062a.463.463 0 0 0-.475.444.48.48 0 0 0 .45.507.494.494 0 0 0 .5-.47.48.48 0 0 0-.475-.48Zm13.444 41.526a.706.706 0 1 0-.7-.713.69.69 0 0 0 .7.713M42.181 41.575a.475.475 0 0 0-.475.481.46.46 0 0 0 .457.469.48.48 0 0 0 .493-.462.487.487 0 0 0-.475-.488m0 8.969a.46.46 0 0 0-.475.45.476.476 0 0 0 .457.5.475.475 0 0 0 0-.95zm0-16.988a.475.475 0 0 0 .488-.468.46.46 0 0 0-.438-.482.475.475 0 1 0-.05.95m0 21.469a.48.48 0 0 0-.462.5.45.45 0 0 0 .469.45.48.48 0 0 0 .444-.667.49.49 0 0 0-.463-.308zm0 8.975a.476.476 0 0 0-.46.646.46.46 0 0 0 .417.298.48.48 0 0 0 .506-.45.487.487 0 0 0-.45-.494zm4.457 22.319a.562.562 0 1 0 .575.556.55.55 0 0 0-.563-.556zm0-13.438a.562.562 0 1 0 .543.575.55.55 0 0 0-.5-.575zm0 8.957a.562.562 0 1 0 .562.562.55.55 0 0 0-.537-.563h-.025Zm0-4.557a.563.563 0 1 0 .55.581.55.55 0 0 0-.513-.58zm-4.47-53.644a.46.46 0 0 0-.462.463.48.48 0 0 0 .47.487.494.494 0 0 0 .48-.48.475.475 0 0 0-.487-.47Zm0 13.457a.456.456 0 0 0-.474.444.48.48 0 0 0 .45.506.494.494 0 0 0 .5-.469.48.48 0 0 0-.463-.481h-.012Zm0-8.969a.45.45 0 0 0-.455.462.48.48 0 0 0 .468.488.5.5 0 0 0 .482-.488.476.476 0 0 0-.5-.462h.006Zm26.926 48.9a.894.894 0 1 0 .887.9.9.9 0 0 0-.893-.9zM60.1 99.562a.775.775 0 1 0 .788.776.756.756 0 0 0-.788-.775Zm8.963-13.568a.893.893 0 1 0 .937.881.907.907 0 0 0-.937-.881m0-4.488a.894.894 0 1 0 .887.906.906.906 0 0 0-.862-.906zM73.58 72.5a.956.956 0 1 0 .944.944.97.97 0 0 0-.944-.944m-8.987 19.719a.82.82 0 0 0 .844-.819.843.843 0 1 0-.844.819m4.481 2.756a.894.894 0 1 0 .9.894.9.9 0 0 0-.9-.906zm0-4.487a.894.894 0 1 0 .9.893.906.906 0 0 0-.9-.906zm4.5-9.038a.963.963 0 1 0 .667.279.98.98 0 0 0-.667-.291zm0-4.481a.962.962 0 1 0 .938.987.975.975 0 0 0-.925-1zm.938 9.962a.963.963 0 1 0-.629.868.975.975 0 0 0 .641-.88zm-5.425-18.85a.894.894 0 1 0 .875.913.9.9 0 0 0-.863-.925zm4.443 22.344a.957.957 0 1 0 .692.269.98.98 0 0 0-.68-.282zm-4.487-17.862a.894.894 0 1 0 .919.874.906.906 0 0 0-.907-.887zm-4.469 15.174a.843.843 0 1 0-.588-.258.82.82 0 0 0 .6.246l-.012.013Zm-4.45-6.1a.776.776 0 1 0 .75.782.756.756 0 0 0-.737-.794l-.013.013Zm3.619.725a.83.83 0 0 0 .812.888.843.843 0 1 0-.812-.888m-3.65 3.75a.775.775 0 1 0 .14 1.545.775.775 0 0 0-.14-1.544Zm0-7.424a.755.755 0 0 0 .787-.744.775.775 0 1 0-1.543-.063.756.756 0 0 0 .762.806zm-.719 17.1a.775.775 0 1 0 .819-.707.76.76 0 0 0-.819.706Zm.756-5.163a.775.775 0 1 0 0 1.55.775.775 0 0 0 0-1.55m.757-17.162a.774.774 0 1 0-1.544 0 .776.776 0 0 0 1.344.592.78.78 0 0 0 .2-.593Zm3.712.85a.82.82 0 0 0 .838-.826.844.844 0 1 0-.838.826m-.037-4.482a.844.844 0 1 0-.807-.856.83.83 0 0 0 .807.825zm.037 8.956a.83.83 0 0 0 .838-.83.843.843 0 1 0-.838.83m0 20.744a.837.837 0 1 0 .813.85.823.823 0 0 0-.788-.881zM60.113 68.22a.775.775 0 1 0 .75.781.756.756 0 0 0-.725-.813zM64.6 95a.844.844 0 1 0 .838.825A.824.824 0 0 0 64.6 95"/></svg>